# xmcd
#
# Track frame offsets:
#	150
#	16891
#	33642
#	50190
#
# Disc length: 893 seconds
#
# Revision: 0
# Processed by: cddbd v1.5.2PL0 Copyright (c) Steve Scherf et al.
# Submitted via: audiograbber 1.83.01
#
DISCID=30037b04
DTITLE=Ivonne - Ivonne
DYEAR=1900
DGENRE=
TTITLE0=Ivonne 
TTITLE1=Ivonne  2
TTITLE2=Ivonne  3
TTITLE3=Ivonne  4
EXTD=
EXTT0=
EXTT1=
EXTT2=
EXTT3=
PLAYORDER=
